<?xml version="1.0" standalone="no"?>
<!DOCTYPE svg PUBLIC "-//W3C//DTD SVG 20010904//EN"
 "http://www.w3.org/TR/2001/REC-SVG-20010904/DTD/svg10.dtd">
<svg version="1.0" xmlns="http://www.w3.org/2000/svg"
 width="512.000000pt" height="512.000000pt" viewBox="0 0 512.000000 512.000000"
 preserveAspectRatio="xMidYMid meet">
<metadata>
Created by potrace 1.11, written by Peter Selinger 2001-2013
</metadata>
<g transform="translate(0.000000,512.000000) scale(0.100000,-0.100000)"
fill="#000000" stroke="none">
<path d="M2890 5113 c-239 -37 -420 -125 -583 -282 -129 -124 -215 -261 -267
-424 l-22 -68 -72 68 c-88 83 -159 126 -268 164 -367 125 -760 -30 -937 -371
-100 -191 -116 -413 -44 -614 31 -87 62 -142 125 -223 l48 -63 -60 0 c-35 0
-74 -7 -90 -15 -60 -31 -60 -33 -60 -337 l0 -278 -152 0 c-175 0 -210 -10
-241 -70 -16 -31 -17 -61 -15 -285 4 -336 -4 -325 247 -325 l161 0 0 -281 0
-281 34 -34 34 -34 692 0 c672 0 692 -1 687 -19 -2 -10 -141 -279 -307 -597
-317 -607 -330 -637 -296 -689 41 -62 133 -70 178 -16 13 15 159 287 323 604
165 316 303 572 306 569 4 -4 143 -270 310 -591 321 -617 324 -621 392 -621
66 0 126 69 113 130 -3 16 -143 292 -311 614 -168 323 -308 593 -311 601 -5
13 80 15 688 15 751 0 719 -2 750 53 9 15 15 86 18 208 l5 187 370 -200 c211
-114 386 -202 406 -205 25 -4 47 0 66 12 61 36 58 -15 61 897 3 911 4 887 -52
924 -57 37 -78 28 -465 -181 -201 -108 -371 -199 -378 -202 -10 -4 -13 30 -13
172 0 258 -12 275 -191 275 l-102 0 75 78 c185 193 277 403 295 667 11 165
-29 349 -109 510 -174 346 -538 569 -922 564 -50 -1 -102 -3 -116 -6z m345
-253 c276 -87 478 -295 552 -570 27 -100 25 -301 -5 -404 -78 -272 -286 -480
-558 -558 -112 -32 -305 -32 -417 0 -233 67 -409 216 -511 433 -58 122 -71
185 -70 344 0 131 2 146 32 233 36 104 65 160 129 244 109 143 279 250 468
294 89 21 290 12 380 -16z m-1634 -504 c179 -62 315 -217 354 -403 18 -86 18
-130 0 -218 -43 -204 -207 -373 -407 -420 -335 -79 -667 184 -668 527 0 249
183 477 430 533 85 19 204 11 291 -19z m579 -853 c19 -27 68 -83 109 -125 l74
-78 -192 0 c-153 0 -191 3 -184 13 5 6 26 32 45 57 20 25 53 75 73 113 20 37
38 67 39 67 2 0 18 -21 36 -47z m1550 -1178 l0 -745 -1420 0 -1420 0 0 745 0
745 1420 0 1420 0 0 -745z m906 -612 c-2 -3 -154 76 -338 175 l-333 179 -3
259 -2 259 337 182 338 182 3 -616 c1 -339 0 -618 -2 -620z m-3976 617 l0
-110 -90 0 -90 0 0 110 0 110 90 0 90 0 0 -110z"/>
<path d="M2868 4571 c-160 -51 -281 -174 -329 -334 -28 -90 -23 -234 10 -319
48 -124 166 -242 289 -288 71 -27 205 -37 284 -21 223 47 388 253 388 486 0
220 -139 411 -348 475 -83 26 -214 26 -294 1z m272 -236 c47 -24 107 -91 126
-140 20 -55 16 -164 -10 -216 -22 -47 -78 -103 -125 -125 -20 -10 -67 -20
-108 -22 -84 -5 -141 17 -200 76 -94 93 -101 249 -17 359 69 90 228 123 334
68z"/>
<path d="M1313 4172 c-98 -35 -171 -106 -211 -205 -21 -52 -24 -73 -20 -141 7
-134 69 -230 191 -293 46 -25 63 -28 147 -28 82 0 103 4 150 26 70 33 132 95
167 167 24 50 28 69 28 147 0 78 -4 98 -28 146 -33 68 -109 142 -174 170 -69
30 -183 35 -250 11z m208 -231 c36 -36 39 -43 39 -96 0 -53 -3 -60 -38 -95
-50 -50 -94 -59 -156 -31 -38 16 -51 29 -67 67 -28 62 -19 106 31 156 35 35
42 38 95 38 53 0 60 -3 96 -39z"/>
<path d="M1365 2731 c-11 -5 -31 -21 -45 -36 l-25 -27 -3 -301 c-4 -349 -1
-379 38 -419 l28 -28 667 0 667 0 29 29 29 29 0 346 0 346 -29 32 -29 33 -654
2 c-359 1 -662 -2 -673 -6z m1173 -403 l-3 -193 -512 -3 -513 -2 0 195 0 195
515 0 515 0 -2 -192z"/>
<path d="M3184 2611 c-60 -36 -68 -124 -17 -175 53 -53 145 -38 177 29 20 41
20 68 1 105 -30 57 -104 76 -161 41z"/>
<path d="M3170 2221 c-16 -16 -32 -40 -36 -55 -9 -38 3 -74 36 -107 59 -59
170 -25 186 57 14 73 -38 134 -113 134 -36 0 -50 -6 -73 -29z"/>
</g>
</svg>
